<?xml version="1.0" encoding="UTF-8" standalone="no"?>
<!-- Generator: Adobe Illustrator 17.0.1, SVG Export Plug-In . SVG Version: 6.00 Build 0)  -->

<svg
   xmlns:dc="http://purl.org/dc/elements/1.1/"
   xmlns:cc="http://creativecommons.org/ns#"
   xmlns:rdf="http://www.w3.org/1999/02/22-rdf-syntax-ns#"
   xmlns:svg="http://www.w3.org/2000/svg"
   xmlns="http://www.w3.org/2000/svg"
   xmlns:sodipodi="http://sodipodi.sourceforge.net/DTD/sodipodi-0.dtd"
   xmlns:inkscape="http://www.inkscape.org/namespaces/inkscape"
   version="1.1"
   id="Layer_1"
   x="0px"
   y="0px"
   width="101px"
   height="101px"
   viewBox="0 0 101 101"
   enable-background="new 0 0 101 101"
   xml:space="preserve"
   inkscape:version="0.91pre2 r13516"
   sodipodi:docname="icon4.svg"
   inkscape:export-filename="C:\Users\dwnet\DwnetDev\casa-itaici-mockup\img\about\icon4.png"
   inkscape:export-xdpi="90"
   inkscape:export-ydpi="90"><metadata
     id="metadata27"><rdf:RDF><cc:Work
         rdf:about=""><dc:format>image/svg+xml</dc:format><dc:type
           rdf:resource="http://purl.org/dc/dcmitype/StillImage" /><dc:title></dc:title></cc:Work></rdf:RDF></metadata><defs
     id="defs25" /><sodipodi:namedview
     pagecolor="#ffffff"
     bordercolor="#666666"
     borderopacity="1"
     objecttolerance="10"
     gridtolerance="10"
     guidetolerance="10"
     inkscape:pageopacity="0"
     inkscape:pageshadow="2"
     inkscape:window-width="1536"
     inkscape:window-height="803"
     id="namedview23"
     showgrid="false"
     inkscape:zoom="2.3366337"
     inkscape:cx="50.5"
     inkscape:cy="50.5"
     inkscape:window-x="-8"
     inkscape:window-y="-8"
     inkscape:window-maximized="1"
     inkscape:current-layer="Layer_1" /><path
     style="fill:#f4898c"
     inkscape:connector-curvature="0"
     id="path5"
     d="M 100.649,50.499 C 100.649,78.196 78.197,100.65 50.5,100.65 22.803,100.65 0.351,78.196 0.351,50.499 0.351,22.805 22.803,0.35 50.5,0.35 c 27.697,0 50.149,22.455 50.149,50.149 z" /><path
     d="M 49.214772,21.650519 36.651358,16.636958 C 31.686155,28.186161 26.057936,36.664794 29.044954,50.87041 27.431925,61.629973 22.841871,71.960936 20.545613,71.75388 17.49818,71.47969 14.00497,70.243746 14.007285,71.693774 l -0.187078,1.092817 c 1.357387,1.332731 3.500753,2.677402 7.781942,4.693622 5.016102,1.57987 6.782553,1.618327 9.03246,1.886206 L 31.18166,78.19653 C 31.907414,76.64447 30.027199,76.19341 26.163086,73.80901 23.677034,72.274977 28.130785,60.166045 33.485428,51.88269 44.140035,43.919569 45.939584,30.406945 49.214862,21.650012 Z"
     inkscape:connector-curvature="0"
     style="fill:#ffffff;fill-opacity:1;stroke:none;stroke-width:0.35823786;stroke-opacity:1"
     sodipodi:nodetypes="cccsccccsscc"
     id="path3019" /><path
     d="m 63.286665,11.592525 -14.520049,4.485422 c 3.811826,13.599422 4.876831,24.982921 17.514446,35.291324 6.184517,10.543156 9.464381,22.812959 7.31114,24.252743 -2.857206,1.911309 -6.782889,3.296616 -5.757392,4.562411 l 0.607823,1.087246 c 2.127135,0.206818 4.949691,-0.130692 10.114875,-1.390165 5.499542,-2.159594 7.070689,-3.372793 9.226357,-4.726698 L 87.43629,73.746115 C 86.975155,71.877244 85.013344,72.810097 79.952847,73.453365 76.697084,73.867241 72.043149,60.139573 70.876853,49.119859 74.569144,34.639176 66.60446,21.557999 63.286387,11.592019 Z"
     inkscape:connector-curvature="0"
     style="fill:#ffffff;fill-opacity:1;stroke:none;stroke-width:0.40247148;stroke-opacity:1"
     sodipodi:nodetypes="cccsccccsscc"
     id="path3019-7" /></svg>