<?xml version="1.0" encoding="UTF-8" standalone="no"?>
<!-- Generator: Adobe Illustrator 17.0.1, SVG Export Plug-In . SVG Version: 6.00 Build 0)  -->

<svg
   xmlns:dc="http://purl.org/dc/elements/1.1/"
   xmlns:cc="http://creativecommons.org/ns#"
   xmlns:rdf="http://www.w3.org/1999/02/22-rdf-syntax-ns#"
   xmlns:svg="http://www.w3.org/2000/svg"
   xmlns="http://www.w3.org/2000/svg"
   xmlns:sodipodi="http://sodipodi.sourceforge.net/DTD/sodipodi-0.dtd"
   xmlns:inkscape="http://www.inkscape.org/namespaces/inkscape"
   version="1.1"
   id="Layer_1"
   x="0px"
   y="0px"
   width="140px"
   height="90px"
   viewBox="0 0 140 90"
   enable-background="new 0 0 140 90"
   xml:space="preserve"
   inkscape:version="0.91pre2 r13516"
   sodipodi:docname="logo-casa-itaici-big.svg"
   inkscape:export-filename="/home/dwnet/Desktop/main/Eattie/img/logo-casa-itaici-big.png"
   inkscape:export-xdpi="90"
   inkscape:export-ydpi="90"><metadata
     id="metadata27"><rdf:RDF><cc:Work
         rdf:about=""><dc:format>image/svg+xml</dc:format><dc:type
           rdf:resource="http://purl.org/dc/dcmitype/StillImage" /><dc:title /></cc:Work></rdf:RDF></metadata><defs
     id="defs25" /><sodipodi:namedview
     pagecolor="#c9c9c9"
     bordercolor="#666666"
     borderopacity="1"
     objecttolerance="10"
     gridtolerance="10"
     guidetolerance="10"
     inkscape:pageopacity="1"
     inkscape:pageshadow="2"
     inkscape:window-width="1536"
     inkscape:window-height="803"
     id="namedview23"
     showgrid="false"
     inkscape:zoom="5.0285714"
     inkscape:cx="69.235795"
     inkscape:cy="42.807569"
     inkscape:window-x="-8"
     inkscape:window-y="-8"
     inkscape:window-maximized="1"
     inkscape:current-layer="Layer_1" /><path
     d="M 71.360456,18.83219 57.779326,13.412499 C 52.41191,25.89726 46.32777,35.062716 49.556755,50.419077 47.81306,62.050233 42.851183,73.21807 40.368914,72.994241 37.074619,72.69784 33.298437,71.361776 33.30094,72.929266 l -0.202233,1.181342 c 1.467344,1.440691 3.784336,2.894288 8.412329,5.073835 5.422438,1.70785 7.331983,1.749422 9.764146,2.039001 l 0.591366,-1.264658 C 52.651092,78.281 50.618568,77.793401 46.441438,75.215849 43.754,73.55755 48.568533,60.467718 54.356936,51.513358 65.874633,42.905174 67.819957,28.297942 71.360554,18.831642 z"
     inkscape:connector-curvature="0"
     style="fill:#ffffff;fill-opacity:0.39215687;stroke:none;stroke-width:0.35823786000000002;stroke-opacity:1"
     sodipodi:nodetypes="cccsccccsscc"
     id="path3019" /><path
     d="M 86.572262,7.9594343 70.875997,12.808204 c 4.120608,14.701061 5.271885,27.006696 18.933227,38.150145 6.685502,11.397219 10.231056,24.660954 7.903389,26.217369 -3.088658,2.066137 -7.332346,3.563663 -6.223777,4.931995 l 0.65706,1.17532 c 2.299446,0.223572 5.350647,-0.141279 10.934244,-1.502777 5.94504,-2.334535 7.64346,-3.646011 9.97375,-5.109591 l -0.37573,-1.522806 c -0.49849,-2.020261 -2.61922,-1.011841 -8.08965,-0.316464 -3.5195,0.447402 -8.550433,-14.392294 -9.811207,-26.304675 3.99139,-15.65371 -4.618484,-29.794545 -8.205342,-40.5678333 z"
     inkscape:connector-curvature="0"
     style="fill:#ffffff;fill-opacity:0.39215687;stroke:none;stroke-width:0.40247147999999999;stroke-opacity:1"
     sodipodi:nodetypes="cccsccccsscc"
     id="path3019-7" /><text
     xml:space="preserve"
     style="font-style:normal;font-weight:normal;font-size:40px;line-height:125%;font-family:Sans;letter-spacing:0px;word-spacing:0px;fill:#000000;fill-opacity:1;stroke:none"
     x="14.704546"
     y="69.517044"
     id="text3763"
     sodipodi:linespacing="125%"><tspan
       sodipodi:role="line"
       id="tspan3765"
       x="14.704546"
       y="69.517044"
       style="font-style:normal;font-variant:normal;font-weight:normal;font-stretch:normal;font-size:24px;line-height:125%;font-family:Marmelad;-inkscape-font-specification:Marmelad;text-align:start;writing-mode:lr-tb;text-anchor:start;fill:#ffffff;fill-opacity:1;stroke:#cbcbcb;stroke-width:0.5;stroke-linecap:round;stroke-linejoin:round;stroke-miterlimit:4;stroke-dasharray:none;stroke-opacity:1">Casa Itaici</tspan></text>
</svg>