<?xml version="1.0" encoding="UTF-8" standalone="no"?>
<!-- Generator: Adobe Illustrator 17.0.1, SVG Export Plug-In . SVG Version: 6.00 Build 0)  -->

<svg
   xmlns:dc="http://purl.org/dc/elements/1.1/"
   xmlns:cc="http://creativecommons.org/ns#"
   xmlns:rdf="http://www.w3.org/1999/02/22-rdf-syntax-ns#"
   xmlns:svg="http://www.w3.org/2000/svg"
   xmlns="http://www.w3.org/2000/svg"
   xmlns:sodipodi="http://sodipodi.sourceforge.net/DTD/sodipodi-0.dtd"
   xmlns:inkscape="http://www.inkscape.org/namespaces/inkscape"
   version="1.1"
   id="Layer_1"
   x="0px"
   y="0px"
   width="140px"
   height="90px"
   viewBox="0 0 140 90"
   enable-background="new 0 0 140 90"
   xml:space="preserve"
   inkscape:version="0.48.4 r9939"
   sodipodi:docname="logo-casa-itaici.svg"><metadata
     id="metadata27"><rdf:RDF><cc:Work
         rdf:about=""><dc:format>image/svg+xml</dc:format><dc:type
           rdf:resource="http://purl.org/dc/dcmitype/StillImage" /><dc:title /></cc:Work></rdf:RDF></metadata><defs
     id="defs25" /><sodipodi:namedview
     pagecolor="#c9c9c9"
     bordercolor="#666666"
     borderopacity="1"
     objecttolerance="10"
     gridtolerance="10"
     guidetolerance="10"
     inkscape:pageopacity="1"
     inkscape:pageshadow="2"
     inkscape:window-width="1440"
     inkscape:window-height="851"
     id="namedview23"
     showgrid="false"
     inkscape:zoom="5.0285714"
     inkscape:cx="33.937499"
     inkscape:cy="42.807569"
     inkscape:window-x="0"
     inkscape:window-y="25"
     inkscape:window-maximized="1"
     inkscape:current-layer="Layer_1" /><path
     d="M 70.710516,24.180518 59.837742,19.841625 c -4.297043,9.995043 -9.167881,17.332719 -6.582822,29.626707 -1.395966,9.311665 -5.368343,18.252406 -7.355597,18.073213 -2.637345,-0.237292 -5.660479,-1.306918 -5.658475,-0.05202 l -0.161903,0.945759 c 1.174725,1.153387 3.029661,2.317107 6.734738,4.062008 4.341092,1.36727 5.869835,1.400551 7.816975,1.632382 l 0.473435,-1.012459 c 0.62809,-1.343201 -0.999107,-1.733563 -4.343232,-3.797098 -2.151507,-1.3276 1.702909,-11.807051 6.336986,-18.975728 9.220832,-6.891536 10.778218,-18.585786 13.612748,-26.164312 z"
     inkscape:connector-curvature="0"
     style="fill:#ffffff;fill-opacity:0.39215686000000000;stroke:none;stroke-width:1;stroke-miterlimit:4;stroke-opacity:1;stroke-dasharray:none;stroke-linejoin:round"
     sodipodi:nodetypes="cccsccccsscc"
     id="path3019" /><path
     d="m 83.883096,15.476013 -12.566108,3.881825 c 3.298874,11.769368 4.220563,21.621007 15.157553,30.542224 5.352276,9.12438 8.190776,19.743054 6.327292,20.989088 -2.472717,1.654107 -5.870126,2.852995 -4.982629,3.948454 l 0.526029,0.940937 c 1.840889,0.178987 4.283618,-0.113105 8.753734,-1.203092 4.759473,-1.868981 6.119193,-2.918922 7.984783,-4.090634 l -0.30081,-1.219127 c -0.39908,-1.61738 -2.09689,-0.81006 -6.476403,-0.253355 C 95.488898,69.370514 91.461233,57.490158 90.451884,47.95335 93.647309,35.42131 86.75442,24.100448 83.882855,15.475574 z"
     inkscape:connector-curvature="0"
     style="fill:#ffffff;fill-opacity:0.39215686999999999;stroke:none;stroke-width:1;stroke-opacity:1;stroke-miterlimit:4;stroke-dasharray:none;stroke-linejoin:round"
     sodipodi:nodetypes="cccsccccsscc"
     id="path3019-7" /><text
     xml:space="preserve"
     style="font-size:32.0231781px;font-style:normal;font-weight:normal;line-height:125%;letter-spacing:0px;word-spacing:0px;fill:#000000;fill-opacity:1;stroke:none;font-family:Sans"
     x="26.347277"
     y="64.757774"
     id="text3763"
     sodipodi:linespacing="125%"><tspan
       sodipodi:role="line"
       id="tspan3765"
       x="26.347277"
       y="64.757774"
       style="font-size:19.21390724px;font-style:normal;font-variant:normal;font-weight:normal;font-stretch:normal;text-align:start;line-height:125%;writing-mode:lr-tb;text-anchor:start;fill:#ffffff;fill-opacity:1;stroke:#cbcbcb;stroke-width:0.40028974;stroke-linecap:round;stroke-linejoin:round;stroke-miterlimit:4;stroke-opacity:1;stroke-dasharray:none;font-family:Marmelad;-inkscape-font-specification:Marmelad">Casa Itaíci</tspan></text>
</svg>